<svg viewBox="0 0 1200 700" xmlns="http://www.w3.org/2000/svg">
  <rect width="1200" height="700" fill="#E9E3D8"/>
  <!-- janela ao fundo -->
  <g fill="none" stroke="#24211D" stroke-width="2" opacity="0.5">
    <rect x="780" y="90" width="300" height="360" rx="4"/>
    <line x1="930" y1="90" x2="930" y2="450"/>
    <line x1="780" y1="270" x2="1080" y2="270"/>
  </g>
  <!-- planta -->
  <g fill="none" stroke="#3F4A3D" stroke-width="3" stroke-linecap="round" opacity="0.8">
    <path d="M1000 500 Q980 420 1010 360"/>
    <path d="M1000 500 Q1020 430 1000 370"/>
    <path d="M1000 500 Q1000 400 970 340"/>
    <rect x="965" y="500" width="70" height="60" rx="6" fill="#F5F2EC" stroke="#24211D" stroke-width="2"/>
  </g>
  <!-- sofá grande -->
  <g fill="none" stroke="#24211D" stroke-width="3" stroke-linejoin="round" stroke-linecap="round">
    <rect x="150" y="380" width="560" height="180" rx="20"/>
    <rect x="120" y="340" width="90" height="230" rx="20"/>
    <rect x="690" y="340" width="90" height="230" rx="20"/>
    <path d="M225 380 V300 Q225 280 250 280 H605 Q630 280 630 300 V380"/>
    <line x1="360" y1="300" x2="360" y2="380"/>
    <line x1="490" y1="300" x2="490" y2="380"/>
    <line x1="360" y1="400" x2="360" y2="560"/>
    <line x1="490" y1="400" x2="490" y2="560"/>
  </g>
  <g stroke="#B08D57" stroke-width="4" stroke-linecap="round">
    <line x1="150" y1="560" x2="150" y2="600"/>
    <line x1="700" y1="560" x2="700" y2="600"/>
  </g>
  <!-- coffee table -->
  <g fill="none" stroke="#24211D" stroke-width="2.5" stroke-linecap="round">
    <ellipse cx="430" cy="610" rx="90" ry="16"/>
  </g>
  <g stroke="#B08D57" stroke-width="3" stroke-linecap="round">
    <line x1="360" y1="622" x2="358" y2="655"/>
    <line x1="500" y1="622" x2="502" y2="655"/>
  </g>
</svg>
