<svg viewBox="0 0 400 400" xmlns="http://www.w3.org/2000/svg">
  <rect width="400" height="400" fill="#F5F2EC"/>
  <g fill="none" stroke="#24211D" stroke-width="2.5" stroke-linejoin="round" stroke-linecap="round">
    <!-- corpo do sofá -->
    <rect x="70" y="170" width="260" height="110" rx="14"/>
    <!-- braços -->
    <rect x="55" y="150" width="45" height="130" rx="12"/>
    <rect x="300" y="150" width="45" height="130" rx="12"/>
    <!-- almofadas do assento -->
    <line x1="200" y1="185" x2="200" y2="270"/>
    <!-- encosto -->
    <path d="M100 170 V130 Q100 116 114 116 H286 Q300 116 300 130 V170"/>
    <line x1="200" y1="116" x2="200" y2="170"/>
    <!-- pernas -->
    <line x1="90" y1="280" x2="90" y2="305"/>
    <line x1="310" y1="280" x2="310" y2="305"/>
    <line x1="120" y1="280" x2="120" y2="300"/>
    <line x1="280" y1="280" x2="280" y2="300"/>
  </g>
  <g stroke="#B08D57" stroke-width="2.5" stroke-linecap="round">
    <line x1="90" y1="280" x2="90" y2="305"/>
    <line x1="310" y1="280" x2="310" y2="305"/>
  </g>
</svg>
